<svg width="27" height="23" viewBox="0 0 27 23" fill="none" xmlns="http://www.w3.org/2000/svg">
<path d="M7.2363 7.48601L4.42578 10.315L12.1579 18.098L25.9989 4.16601L23.1894 1.33701L12.1579 12.439L7.2363 7.48601Z" fill="white"/>
<path d="M20.8628 20C20.8628 20.542 20.4078 21 19.8693 21H2.9804C2.44194 21 1.98693 20.542 1.98693 20V3C1.98693 2.458 2.44194 2 2.9804 2H19.7779L21.3526 0.415C20.9035 0.146542 20.3916 0.00329969 19.8693 0H2.9804C1.34118 0 0 1.35 0 3V20C0 21.65 1.34118 23 2.9804 23H19.8693C21.5085 23 22.8497 21.65 22.8497 20V10.171L20.8628 12.171V20Z" fill="white"/>
</svg>
