<svg width="75" height="72" viewBox="0 0 75 72" fill="none" xmlns="http://www.w3.org/2000/svg">
<path fill-rule="evenodd" clip-rule="evenodd" d="M45.6562 65.033H29.6562V41.21H45.6562V65.033ZM42.7183 44.134H32.5933V62.11H42.7183V44.134Z" fill="#81B3D2"/>
<path fill-rule="evenodd" clip-rule="evenodd" d="M72.7713 39.253L74.8473 37.185L64.9393 27.32V0H51.1273V13.567L37.5003 0L0.152344 37.185L2.22934 39.253L10.0613 31.458V69.076H6.12434V72H69.9993V69.076H64.9403V31.458L72.7713 39.253ZM62.0023 69.076H12.9993V28.534L37.5003 4.149L62.0023 28.534V69.076ZM54.0643 16.492L62.0023 24.394V2.924H54.0643V16.492Z" fill="#81B3D2"/>
<path fill-rule="evenodd" clip-rule="evenodd" d="M37.6555 34.793C33.3755 34.793 29.9055 31.341 29.9055 27.08C29.9055 22.821 33.3745 19.367 37.6555 19.367C41.9345 19.367 45.4055 22.821 45.4055 27.08C45.4055 31.341 41.9345 34.793 37.6555 34.793ZM42.6245 27.08C42.6245 24.349 40.3995 22.135 37.6555 22.135C34.9105 22.135 32.6855 24.349 32.6855 27.08C32.6855 29.812 34.9095 32.028 37.6555 32.028C40.3995 32.028 42.6245 29.812 42.6245 27.08ZM17.0605 41.21H20.0605V45.129H17.0605V41.21ZM25.9985 41.21H22.9985V45.129H25.9985V41.21ZM17.0605 47.182H20.0605V51.101H17.0605V47.182ZM25.9985 47.182H22.9985V51.101H25.9985V47.182ZM48.9975 41.21H51.9975V45.129H48.9975V41.21ZM57.9355 41.21H54.9355V45.129H57.9355V41.21ZM48.9975 47.182H51.9975V51.101H48.9975V47.182ZM57.9355 47.182H54.9355V51.101H57.9355V47.182Z" fill="#81B3D2"/>
</svg>
