<svg width="138" height="70" viewBox="0 0 138 70" fill="none" xmlns="http://www.w3.org/2000/svg">
<path d="M138 0H0L59.51 65.68C64.73 71.441 73.27 71.441 78.49 65.68L138 0Z" fill="#81B3D3"/>
<path d="M36.6875 0.457001L68.8355 38.336L100.855 0.686001L36.6875 0.457001Z" fill="#23A9E1"/>
<path fill-rule="evenodd" clip-rule="evenodd" d="M78.4208 14.719H61.1008C60.8202 14.5918 60.4392 14.4492 60.0128 14.2896C57.815 13.467 54.4123 12.1934 57.3478 10.252C58.8174 9.31859 59.8725 9.46836 60.8698 9.60993C61.9591 9.76456 62.9794 9.90941 64.3958 8.622C66.9753 6.28128 70.6707 9.9095 71.9361 11.1519C72.1968 11.4079 72.3544 11.5626 72.3778 11.543C73.6273 10.5022 75.6315 12.3043 77.1116 13.6352C77.6309 14.1022 78.0857 14.5112 78.4208 14.719ZM87.8308 11.241L77.9708 11.295C81.8668 6.795 83.6178 7.277 87.8308 11.241Z" fill="white"/>
<path fill-rule="evenodd" clip-rule="evenodd" d="M36 0.001H69.055L102 0V15.04L69.056 54.245L68.836 54.52L36 14.583V0.001ZM40.011 1.153V3.06L38.407 1.154L40.011 1.153ZM97.622 1.154V3.588L99.702 1.154H97.622ZM48.467 13.081L48.377 12.998L49.1963 13.9714L49.196 13.972L68.834 37.302L49.1963 13.9714C51.8513 9.42894 55.6532 8.74921 59.743 13.664C60.397 14.4815 60.7938 15.2248 61.112 15.8208C61.5626 16.6649 61.8556 17.2137 62.498 17.26C63.6367 17.3414 64.1967 16.5858 64.7536 15.8344C65.1958 15.2376 65.6362 14.6434 66.363 14.473C67.7842 14.139 68.4388 14.4977 69.0817 14.85C69.2856 14.9618 69.4884 15.0729 69.714 15.161C69.9962 15.2714 70.2599 15.3412 70.504 15.4058C71.131 15.5718 71.6286 15.7035 71.977 16.401C72.0931 16.633 72.1901 16.8652 72.2848 17.0919C72.7047 18.0974 73.0797 18.9953 74.879 19.294C77.4273 19.718 79.5817 18.7657 81.8233 17.7747C83.4303 17.0644 85.0821 16.3342 86.956 16.077L89.471 13.132C89.366 13.022 87.004 10.592 83.339 8.182C79.91 5.927 74.611 3.233 68.833 3.205C63.042 3.173 57.817 5.858 54.45 8.117C50.9069 10.4943 48.6345 12.9034 48.4757 13.0718L48.467 13.081ZM97.114 1.153H93.887V7.96L97.114 4.183V1.153ZM89.832 12.61V1.154H93.378V8.558L89.878 12.656C89.8632 12.6402 89.8478 12.6248 89.832 12.61ZM89.324 12.115V2.221L85.767 9.129C87.0081 10.0564 88.1956 11.0533 89.324 12.115ZM85.159 1.863V8.682C84.696 8.348 84.209 8.009 83.694 7.67C83.03 7.232 82.294 6.778 81.5 6.33L85.159 1.863ZM80.847 5.97V1.73L77.727 4.496C78.7921 4.9323 79.8336 5.42431 80.847 5.97ZM81.355 1.154H85.082L81.355 5.704V1.154ZM89.3 1.154H85.667L85.666 8.214L89.3 1.154ZM76.87 1.154H80.73L77.2 4.282C77.1346 4.2568 77.0681 4.23268 77.0017 4.20857C76.9573 4.19248 76.913 4.1764 76.869 4.16V1.154H76.87ZM76.361 3.974V1.571L73.261 3.087C74.3117 3.31806 75.3471 3.6143 76.361 3.974ZM72.158 1.613V2.873C71.4364 2.75191 70.7092 2.6678 69.979 2.621L72.158 1.613ZM67.64 2.616L65.392 1.574V2.869C66.128 2.746 66.878 2.659 67.64 2.616ZM61.272 1.571L64.337 3.069C63.277 3.298 62.254 3.597 61.271 3.944L61.272 1.571ZM61.578 1.154L64.882 2.771L64.883 1.154H61.578ZM68.448 2.429L65.694 1.154H68.448V2.429ZM71.938 1.154H69.057V2.488L71.938 1.154ZM72.816 1.154H76.056L72.816 2.738V1.154ZM56.895 1.155L60.405 4.265L60.764 4.13V1.155H56.895ZM56.787 1.738L59.88 4.479C58.8227 4.91873 57.7902 5.4158 56.787 5.968V1.738ZM56.115 6.346L52.475 1.866V8.756C53.6383 7.87955 54.8539 7.07473 56.115 6.346ZM48.31 2.224L51.896 9.198C50.6354 10.1717 49.4377 11.2241 48.31 12.349V2.224ZM48.332 1.154L51.966 8.224V1.154H48.332ZM56.278 5.739L52.552 1.154H56.278V5.739ZM40.52 3.664L43.747 7.497V1.154H40.52V3.664ZM44.255 1.154H47.8V12.314L44.254 8.102L44.255 1.154Z" fill="#491213"/>
<path d="M66.2266 46.026L68.8366 41.806L71.4346 46.026L68.8366 50.256L66.2266 46.026Z" fill="#23A9E1"/>
<path fill-rule="evenodd" clip-rule="evenodd" d="M52.8794 11.718C51.0964 12.272 49.9984 14.73 52.6224 14.839H52.6234C52.5154 13.171 52.9894 12.465 53.1354 14.491C53.5681 14.471 54.0174 14.4591 54.4742 14.4469C56.1161 14.4034 57.855 14.3572 59.2694 13.923C58.1294 12.832 54.5744 11.19 52.8794 11.718ZM58.7924 22.985C53.1964 22.939 56.9794 14.337 58.8834 14.857C61.0735 15.553 60.8274 23.051 58.7924 22.985ZM61.3324 20.13C61.2224 22.102 62.2104 21.799 62.7554 20.175V20.174C62.7587 20.5328 62.7193 20.8944 62.6809 21.2468C62.5787 22.1831 62.4836 23.0555 63.2144 23.644C64.5384 24.713 67.0794 23.247 67.9104 22.152C66.3134 21.532 68.2584 17.765 69.4564 17.191C68.2244 19.772 66.8044 23.617 70.0244 23.617C68.3924 23.617 71.3264 16.871 71.3424 16.925C71.1563 16.3081 70.6938 16.2415 70.1416 16.1621C69.7324 16.1032 69.274 16.0372 68.8424 15.735C67.2604 14.6278 66.4338 15.5809 65.6306 16.507C65.2803 16.9108 64.9345 17.3095 64.5324 17.53C64.0524 17.7928 63.5821 17.9267 63.156 18.0481C62.17 18.3288 61.4204 18.5422 61.3324 20.13ZM74.2174 30.556C70.7844 28.536 71.6535 27.033 74.4474 25.631C74.8077 25.4502 75.279 25.1532 75.8054 24.8216C77.4156 23.8072 79.5412 22.4681 80.5804 23.132L74.2174 30.556ZM70.6736 33.0045L70.6733 33.0045C68.9667 32.8994 67.1796 32.7893 65.6214 33.128C66.8284 33.43 69.7724 34.293 67.0314 35.022C68.0145 36.429 69.6094 36.339 70.6554 35.104C70.3995 34.9782 70.2143 34.8349 70.0306 34.6928L70.0306 34.6928C69.9092 34.5989 69.7885 34.5055 69.6484 34.418C70.7334 34.222 71.7484 33.596 71.8834 33.073C71.4877 33.0546 71.083 33.0297 70.6736 33.0045ZM70.3724 31.499C71.2414 30.659 72.1854 30.703 73.1185 31.499H73.1174C72.6434 32.881 64.0584 32.393 62.9934 29.779C63.5178 29.8582 64.2005 29.8662 64.9426 29.8749C67.0011 29.8989 69.5161 29.9282 70.3724 31.499ZM66.3444 29.348C65.8938 29.2083 65.1354 29.1189 64.3665 29.0283C62.4651 28.8041 60.4985 28.5722 62.9564 27.554C64.0215 27.113 69.5494 27.617 66.3444 29.348ZM68.2565 26.318C67.7794 25.241 68.6215 23.958 69.9965 24.89C71.1954 25.703 69.4445 26.907 68.2565 26.318ZM65.4205 26.409C63.1554 27.088 60.1474 25.625 63.7905 24.889C66.0514 24.433 68.4564 25.395 65.4205 26.409Z" fill="#DC6243"/>
<path d="M71.7746 25.832C68.8666 22.845 76.1166 23.12 77.2846 22.069C78.1346 22.353 84.2746 16.692 85.7696 17.044C84.6956 18.304 82.3816 22.326 80.7226 22.326C79.4476 22.326 78.1576 22.136 77.1706 23.044C75.7266 24.374 73.3336 25.05 71.7746 25.832Z" fill="#F49774"/>
<path d="M72.7277 22.18C71.1357 23.036 69.6297 19.644 72.3787 19.974C74.2047 20.194 76.0547 19.82 77.7987 20.121C76.5477 21.608 74.7427 22.427 72.7277 22.18Z" fill="#F4B1A4"/>
<path fill-rule="evenodd" clip-rule="evenodd" d="M39.2657 14.483C39.6267 15.702 40.8497 16.149 41.9967 15.809C42.0329 15.8493 42.0556 15.9116 42.0768 15.9699L42.0768 15.9699C42.0867 15.997 42.0962 16.0232 42.1067 16.046C42.0071 16.0843 41.823 16.1636 41.6029 16.2585L41.6029 16.2585L41.6029 16.2585L41.6029 16.2585L41.6029 16.2585C40.9903 16.5225 40.0988 16.9066 39.9737 16.861C39.7568 16.4283 39.4154 16.1086 39.072 15.7869C38.8328 15.5628 38.5926 15.3378 38.3927 15.073C37.8267 14.325 37.4957 13.422 37.5847 12.476C37.7267 10.731 39.4827 8.80701 41.3467 9.07101C42.2667 9.20401 43.0347 9.85801 43.6067 10.554C43.7691 10.7433 43.9104 10.9418 44.0498 11.1377C44.3464 11.5544 44.6344 11.9591 45.0997 12.238C44.5417 12.95 43.9837 13.66 43.4237 14.371C43.0932 14.2249 43.1937 13.997 43.3035 13.7479C43.3342 13.6781 43.3657 13.6067 43.3887 13.535C43.5517 13.018 43.6737 12.43 43.4497 11.91C42.9397 10.736 41.5447 10.696 40.6097 11.366C39.6637 12.044 38.9127 13.292 39.2657 14.483ZM47.6907 16.404C47.8074 16.3788 47.8962 16.4207 47.975 16.458C48.09 16.5123 48.1839 16.5567 48.3127 16.368L46.7227 14.474C46.4817 14.187 46.1767 13.879 46.2637 14.486C46.3217 14.895 42.2947 18.163 42.0487 18.264C41.9139 18.3197 41.8032 18.2758 41.7025 18.2359C41.5717 18.1841 41.4575 18.1388 41.3287 18.327C41.5295 18.5655 41.7301 18.8042 41.9306 19.0429L41.9309 19.0433L41.9324 19.0451L41.933 19.0457L41.9338 19.0467L41.9339 19.0468L41.934 19.047L41.9341 19.0471L41.9342 19.0472L41.9343 19.0474L41.9344 19.0475L41.9346 19.0476L41.935 19.0481L41.9351 19.0483L41.9352 19.0484L41.9353 19.0485L41.9354 19.0487L41.9355 19.0488C42.2076 19.3726 42.4796 19.6965 42.7527 20.02C42.8042 20.0812 42.8546 20.1441 42.9051 20.2072C43.0114 20.3401 43.1184 20.4737 43.2377 20.593C43.4265 20.7818 43.3907 20.3247 43.383 20.2273L43.383 20.2273L43.383 20.2272C43.3818 20.2112 43.3813 20.2049 43.3827 20.213C43.3293 19.9168 43.6415 19.6601 43.8611 19.4797L43.8611 19.4796C43.8884 19.4572 43.9142 19.436 43.9377 19.416C44.9417 18.532 47.4427 16.437 47.6907 16.404ZM51.1137 20.935C51.4467 21.336 51.6917 21.769 51.6367 22.309C51.6237 22.4368 51.5492 22.5942 51.4736 22.7539C51.3272 23.063 51.1768 23.3804 51.4617 23.507L52.9167 21.667C52.5267 21.569 49.4347 17.871 49.3847 17.466L47.3337 18.592C47.4036 18.8751 47.747 18.7859 48.0768 18.7002C48.2468 18.656 48.4132 18.6128 48.5367 18.622C49.0747 18.66 49.4627 18.985 49.8047 19.369C49.6992 19.4576 49.5793 19.5584 49.4486 19.6684L49.4443 19.672L49.4438 19.6724L49.4437 19.6725L49.4436 19.6725C48.1859 20.7305 45.9272 22.6306 45.6667 22.674C45.6187 22.6816 45.5261 22.6421 45.4231 22.5982C45.2124 22.5084 44.9581 22.3999 44.9527 22.637C44.9497 22.7623 45.2516 23.0609 45.4529 23.2601L45.453 23.2602L45.453 23.2602C45.5248 23.3313 45.5838 23.3896 45.6117 23.423L47.0587 25.145C47.2786 25.0447 47.2357 24.9115 47.1858 24.757C47.1448 24.6297 47.0991 24.488 47.1917 24.338C47.3108 24.1451 49.2464 22.512 50.4097 21.5306L50.4097 21.5306L50.4098 21.5305L50.4104 21.53C50.7117 21.2757 50.9612 21.0653 51.1137 20.935ZM64.9622 36.5157L64.9622 36.5156L64.962 36.5155C64.7674 36.2637 64.6175 36.0697 64.5397 35.977L64.3267 35.724C64.3197 35.714 64.1417 35.869 64.1667 35.848C64.1133 35.8928 64.1304 35.9795 64.1498 36.0783C64.1712 36.1867 64.1955 36.3097 64.1327 36.408C63.6177 37.214 60.3947 39.644 60.2277 39.76C60.0539 39.8807 59.8717 39.8609 59.706 39.8428C59.5285 39.8235 59.3698 39.8062 59.2607 39.966C59.3998 40.131 59.6161 40.4017 59.8554 40.7012L59.8554 40.7012C60.4197 41.4073 61.1118 42.2735 61.2207 42.291C61.4376 42.3259 61.3986 42.0542 61.3688 41.8463C61.3558 41.7561 61.3446 41.678 61.3567 41.642C61.4319 41.4165 62.8757 40.2125 63.5425 39.6566L63.6607 39.558C63.8464 39.4021 64.0401 39.7121 64.1738 39.9261L64.1738 39.9261C64.197 39.9633 64.2184 39.9976 64.2377 40.026C64.4497 40.341 64.5447 40.676 64.4307 41.045C64.4084 41.1163 64.3583 41.198 64.3068 41.2819C64.1851 41.4802 64.0557 41.691 64.2687 41.807C64.4396 41.6072 64.7422 41.2542 65.0461 40.8996L65.0527 40.8919L65.0559 40.8882L65.0607 40.8827C65.467 40.4087 65.8721 39.9361 65.9647 39.827C66.0856 39.6869 65.8288 39.7409 65.7107 39.7657L65.7107 39.7657L65.7106 39.7657C65.6686 39.7745 65.6441 39.7797 65.6607 39.771C65.4207 39.895 65.1947 39.924 64.9707 39.753C64.9077 39.706 64.2637 39.051 64.3277 38.996C64.3932 38.941 64.4622 38.8775 64.534 38.8114C64.7692 38.595 65.0352 38.3502 65.3117 38.282C65.8717 38.144 66.3387 39.266 66.4217 39.664C66.4997 40.039 66.4887 40.434 66.3717 40.8C66.3516 40.8631 66.3216 40.923 66.2933 40.9797C66.2087 41.1489 66.1381 41.2902 66.3837 41.404L67.7667 39.508C67.6764 39.5127 67.5867 39.4908 67.5087 39.445C66.925 39.0551 65.6581 37.416 64.9622 36.5157ZM56.3047 31.317C56.8599 30.8446 57.554 30.5662 58.2817 30.524C59.4397 30.458 60.6137 30.988 61.3717 31.998C62.4837 33.482 62.3017 35.559 60.8717 36.764C59.1867 37.965 57.1047 37.772 55.8127 36.07C54.6887 34.592 54.8747 32.52 56.3047 31.317ZM59.4717 31.91C60.4207 31.802 60.9747 32.709 60.5707 33.678C60.1507 34.658 59.1407 35.667 58.1467 36.058C56.9667 36.523 56.1357 35.521 56.6157 34.401C57.0377 33.417 58.0457 32.418 59.0417 32.021C59.1917 31.962 59.3357 31.926 59.4717 31.911V31.91ZM56.975 27.3709C56.8822 27.3321 56.7862 27.292 56.6887 27.28V27.279C55.993 27.1958 55.2099 27.3412 54.4712 27.4784H54.4711L54.4711 27.4784C54.1884 27.5309 53.9121 27.5822 53.6497 27.619C53.0027 27.71 51.4777 29.195 51.3797 29.475C51.3692 29.5138 51.3904 29.6015 51.4147 29.7024C51.4694 29.929 51.5402 30.2225 51.3057 30.181C51.2265 30.1662 51.0366 29.9081 50.91 29.7361L50.91 29.7361L50.9099 29.7359C50.8655 29.6756 50.829 29.6259 50.8077 29.601L49.1907 27.681C49.334 27.4781 49.4549 27.5471 49.5944 27.6268C49.7052 27.69 49.8278 27.76 49.9827 27.706C50.2489 27.6126 51.1609 26.8353 51.5925 26.4675L51.5929 26.4671L51.595 26.4652C51.6519 26.4168 51.7003 26.3755 51.7377 26.344C52.2915 25.8782 52.7784 24.171 52.9376 23.6127C52.9629 23.5238 52.98 23.464 52.9877 23.443C53.0487 23.273 53.0697 22.298 53.0457 22.318C53.2563 22.1443 53.4007 22.3575 53.547 22.5735C53.5911 22.6386 53.6354 22.7039 53.6817 22.759L55.4617 24.871C55.3295 25.0609 55.2074 25.0053 55.0727 24.944C54.9434 24.8852 54.8025 24.821 54.6297 24.963C54.4711 25.0939 54.0898 26.1921 53.9169 26.6903L53.8777 26.803C53.9159 26.7962 53.9643 26.788 54.0206 26.7784L54.0206 26.7784C54.5531 26.6876 55.7968 26.4755 55.9397 26.225C56.0071 26.1066 55.9677 26.0054 55.9324 25.9146C55.8859 25.7952 55.8465 25.6938 56.0657 25.595L57.5127 27.307C57.3603 27.5318 57.1752 27.4545 56.975 27.3709ZM80.9277 34.049C81.0517 34.47 81.1217 34.914 81.0677 35.354C80.9977 35.92 80.4317 37.252 79.6567 36.873C79.1223 36.6107 78.6349 36.1625 78.1683 35.7336C77.9714 35.5525 77.7781 35.3748 77.5867 35.216C78.1067 34.608 78.5647 34.081 79.4397 34.376C79.6797 34.456 79.8857 34.352 79.6337 34.206C79.5837 34.1769 79.4798 34.1129 79.3435 34.0289C78.7625 33.6708 77.5936 32.9503 77.5167 33.037C77.4371 33.1288 77.5008 33.2537 77.5751 33.3995C77.6642 33.5745 77.7688 33.7796 77.6597 33.994C77.5449 34.2189 77.3699 34.4198 77.1997 34.6153C77.1504 34.6718 77.1016 34.7279 77.0547 34.784C76.9864 34.7264 76.9115 34.6683 76.835 34.609L76.8348 34.6089L76.8346 34.6087C76.3879 34.2624 75.8891 33.8757 76.3697 33.32C76.7217 32.892 77.1807 32.56 77.7307 32.45C77.8601 32.4236 78.0464 32.447 78.2381 32.471C78.5914 32.5154 78.9633 32.562 79.0327 32.304C78.6097 32.1 78.1867 31.8971 77.7637 31.6942C77.4817 31.5589 77.1997 31.4236 76.9177 31.288C77.01 31.7056 75.5523 33.347 74.7117 34.2935C74.5057 34.5255 74.3367 34.7157 74.2367 34.836C74.2173 34.8591 74.1788 34.8971 74.1324 34.943C74.0017 35.0721 73.8086 35.263 73.8057 35.353C73.8002 35.6048 74.1352 35.4514 74.2163 35.4142L74.2163 35.4142C74.2247 35.4104 74.2304 35.4078 74.2327 35.407C74.5477 35.291 78.6567 38.724 78.7587 38.959C78.7894 39.045 78.7589 39.1331 78.7313 39.2128C78.7005 39.3017 78.6733 39.3802 78.7387 39.434C78.7384 39.4337 78.7385 39.4338 78.7391 39.4344L78.7416 39.4367C78.763 39.4564 78.8884 39.5719 78.9037 39.554C78.9461 39.5031 79.0567 39.3602 79.2142 39.1569L79.2142 39.1569L79.2143 39.1568C79.9963 38.1472 81.9324 35.6479 82.3927 35.518C81.8757 34.7304 81.3633 33.9397 80.8557 33.146C80.569 33.2718 80.7042 33.5544 80.826 33.809C80.8669 33.8945 80.9063 33.9768 80.9277 34.049ZM73.2119 39.241C73.9331 38.7948 75.7737 37.6562 76.9277 38.401C78.0597 39.343 77.8127 40.881 77.0597 41.981C76.6987 42.506 76.2427 42.945 75.7657 43.364L75.7344 43.3902C75.3843 43.6836 75.1257 43.9001 75.0597 44.379L72.7997 42.732C72.9123 42.4365 73.1378 42.5631 73.3604 42.688C73.4421 42.7339 73.5235 42.7796 73.5987 42.804C73.9897 42.933 74.4147 42.969 74.8147 42.863C75.4987 42.681 76.1917 42.04 76.3747 41.344C76.6027 40.479 75.7537 40.217 75.1077 40.52C74.7966 40.6659 74.4999 40.8614 74.2072 41.0541C74.0906 41.131 73.9747 41.2074 73.8587 41.28C73.2057 41.687 72.4377 41.995 71.7007 41.611C71.0527 41.275 70.6117 40.621 70.6117 39.885C70.6117 39.088 71.0647 38.39 71.5987 37.835C71.7229 37.7064 71.8729 37.5799 72.0274 37.4497C72.4304 37.1102 72.8636 36.7451 72.9467 36.25C73.5017 36.626 74.0567 37.001 74.6137 37.376C74.7058 37.4389 74.6895 37.46 74.639 37.5256L74.639 37.5257C74.6237 37.5456 74.6052 37.5696 74.5857 37.6C74.5385 37.6738 74.2154 37.6375 73.9512 37.6079L73.9512 37.6079C73.8181 37.5929 73.7 37.5797 73.6397 37.583C73.0437 37.619 72.4437 37.88 72.1397 38.42C71.7897 39.042 72.2767 39.714 72.9517 39.395C73.0011 39.3714 73.0907 39.316 73.2119 39.241ZM94.5447 10.336C94.5096 10.352 94.4793 10.3768 94.4567 10.408L93.6667 11.358L92.8527 12.34C92.8246 12.3741 92.7962 12.405 92.7699 12.4337L92.7698 12.4338C92.6383 12.577 92.5578 12.6646 92.8277 12.807C93.3707 12.535 96.3457 17.575 96.0797 18.299C95.6097 18.543 91.5897 15.016 91.4817 14.783C91.4723 14.7561 91.4826 14.6911 91.495 14.613C91.5261 14.4159 91.5706 14.1349 91.3457 14.17C91.2353 14.187 91.0228 14.4988 90.8819 14.7056L90.8818 14.7057L90.8818 14.7058L90.8816 14.706C90.8324 14.7782 90.792 14.8375 90.7677 14.867L90.1907 15.562C90.3215 15.7528 90.4172 15.7077 90.536 15.6515C90.6134 15.615 90.7006 15.5738 90.8137 15.59C91.0418 15.6358 91.8575 16.3229 92.1911 16.6039L92.1911 16.6039L92.1912 16.604L92.1912 16.604L92.2697 16.67C92.1131 16.6757 91.8675 16.6871 91.6035 16.6994C91.075 16.724 90.4727 16.752 90.3647 16.744C90.0288 16.7858 89.9876 16.6382 89.9412 16.4717C89.9066 16.3477 89.869 16.2133 89.7047 16.139L88.2267 17.934L87.3667 18.977C87.3625 18.982 87.359 18.9861 87.356 18.9895C87.3483 18.9982 87.3445 19.0025 87.3449 19.0063C87.3454 19.0101 87.3501 19.0134 87.3595 19.0198C87.3681 19.0258 87.3807 19.0346 87.3977 19.049C87.4277 19.0737 87.4507 19.0937 87.4688 19.1094C87.5085 19.1439 87.5249 19.1581 87.5413 19.1581C87.5528 19.1581 87.5642 19.151 87.5838 19.1389C87.6146 19.1199 87.6654 19.0886 87.7677 19.053C88.0957 18.938 92.0237 22.253 92.1657 22.422C92.2774 22.5552 92.2664 22.6986 92.2563 22.8303C92.2443 22.9874 92.2335 23.128 92.4337 23.215L93.6017 21.797C93.6143 21.7817 93.6256 21.7699 93.6349 21.7602C93.6693 21.7244 93.6761 21.7174 93.6147 21.667C93.4617 21.5411 93.3835 21.5963 93.2867 21.6646C93.2081 21.72 93.1174 21.784 92.9647 21.767C92.6654 21.7177 90.7471 20.1176 89.6051 19.165L89.604 19.164L89.5997 19.1605L89.5982 19.1592L89.5921 19.1541C89.4193 19.01 89.2647 18.8811 89.1367 18.775L94.4587 18.578C94.6537 18.571 95.1987 19.159 95.1537 19.368C95.1378 19.4427 95.1034 19.5055 95.073 19.5611C95.004 19.6871 94.9552 19.7761 95.1877 19.883C95.311 19.7347 95.4372 19.5866 95.5636 19.4383L95.5637 19.4382L95.5638 19.4382L95.5639 19.4381L95.5639 19.438L95.564 19.4379C95.7561 19.2125 95.9488 18.9865 96.1327 18.758L96.2807 18.574C96.3384 18.5279 96.3846 18.469 96.4157 18.402L96.5257 18.265C96.5522 18.2347 96.5844 18.1982 96.621 18.1568L96.6234 18.1541L96.6236 18.1539C96.9673 17.7646 97.6841 16.9528 97.5877 16.869C97.4477 16.7477 97.3413 16.8053 97.2272 16.8671C97.0966 16.9377 96.956 17.0138 96.7437 16.834C96.5382 16.6867 96.0509 15.8484 95.8573 15.5155L95.8087 15.432C95.6552 15.1715 96.0892 14.9118 96.3487 14.7565C96.38 14.7378 96.4088 14.7205 96.4337 14.705C96.9377 14.392 98.5407 13.938 98.6937 14.932C98.7045 15.004 98.673 15.0803 98.6436 15.1518C98.6047 15.2461 98.5693 15.3321 98.6387 15.389C98.644 15.3936 98.6521 15.402 98.6619 15.4123C98.7042 15.4564 98.7798 15.5354 98.8147 15.494L100.957 12.918C100.937 12.9011 100.915 12.8799 100.894 12.8581C100.847 12.8115 100.798 12.7617 100.747 12.742C100.273 13.215 95.2807 11.222 94.9167 10.947C94.8404 10.9167 94.7937 10.7721 94.748 10.6307C94.6943 10.4644 94.642 10.3025 94.5447 10.336ZM96.6067 13.849C95.8457 13.527 95.0837 13.207 94.3197 12.889L95.3357 14.637C95.5244 14.4503 95.7326 14.2843 95.9567 14.142H95.9587C96.1597 14.015 96.3767 13.913 96.6067 13.849ZM87.7317 20.642C86.6247 20.566 85.5017 21.052 84.7087 21.959C83.4737 23.459 83.5967 25.637 85.1017 26.904C86.6197 28.154 88.7817 27.836 90.0177 26.354C91.2497 24.858 91.1647 22.674 89.6327 21.42C89.0981 20.9654 88.4326 20.6929 87.7327 20.642H87.7317ZM88.0247 22.904C87.5927 22.615 86.9047 22.239 86.2827 22.201C85.9097 22.178 85.5597 22.278 85.3027 22.592C84.4877 23.588 85.7647 24.718 86.5097 25.256C87.2537 25.793 88.6337 26.57 89.4337 25.73C89.4402 25.7245 89.4462 25.7185 89.4517 25.712C89.5847 25.545 89.5497 25.584 89.5017 25.642C90.2387 24.591 88.8047 23.425 88.0247 22.904ZM83.1557 26.481C81.9417 26.414 80.7527 26.977 79.8567 28.057C79.333 28.6859 78.8106 29.3162 78.2885 29.9461L77.9347 30.373C78.0581 30.5528 78.193 30.515 78.3434 30.4729C78.4709 30.4372 78.6094 30.3984 78.7617 30.486C79.0447 30.649 82.8147 33.798 82.8767 33.971C82.9231 34.1012 82.8972 34.1856 82.8752 34.2573C82.8469 34.3491 82.8252 34.4199 82.9707 34.539C83.0817 34.632 85.9147 31.134 86.1737 30.519C86.6217 29.38 86.2647 28.132 85.3537 27.344C85.4267 27.404 85.5307 27.489 85.3117 27.307C84.6217 26.789 83.8847 26.52 83.1557 26.48V26.481ZM82.3687 28.098C82.2867 28.077 82.1977 28.064 82.1027 28.061V28.06C81.4417 28.035 80.5207 28.418 80.0457 28.939C79.8867 29.114 83.8677 32.338 84.0657 32.148C84.2483 31.9726 84.3221 31.9092 84.3627 31.8742C84.4117 31.8321 84.4124 31.8315 84.4977 31.726C85.7527 30.213 83.7907 28.461 82.3687 28.098Z" fill="white"/>
</svg>
