<svg width="458" height="352" viewBox="0 0 458 352" fill="none" xmlns="http://www.w3.org/2000/svg">
<path fill-rule="evenodd" clip-rule="evenodd" d="M181.774 56.09L178.929 60.967H176.2L175.33 62.401H178.087L172.018 72.784C170.741 74.992 171.642 77.03 174.08 77.03C175.303 77.03 176.618 76.393 177.933 75.409L177.155 76.743H180.201L184.789 68.856C189.433 63.089 191.495 63.836 190.188 66.046L186.268 72.786C184.99 74.996 185.891 77.034 188.329 77.034C190.125 77.034 192.117 75.664 194.022 73.829C194.168 75.686 195.689 77.034 198.112 77.034C201.535 77.034 204.932 74.394 207.428 71.526C207.231 71.123 206.709 70.665 206.302 70.493L206.099 70.719C203.921 73.216 201.135 75.194 199.017 75.194C197.157 75.194 196.053 74.048 197.447 71.639L197.737 71.119C199.683 71.924 203.341 71.55 205.605 67.679L206.042 66.932C207.667 64.179 206.1 62.114 203.632 62.114C201.193 62.114 199.249 63.377 197.972 65.555L195.042 70.52L194.866 70.72C192.689 73.214 190.571 75.192 189.235 75.192C188.569 75.192 188.189 74.732 188.885 73.557L193.24 66.014C194.546 63.749 193.3 62.114 191.616 62.114C190.309 62.114 188.914 62.831 187.406 64.379L192.224 56.09H189.205L180.782 70.528L180.612 70.718C178.436 73.214 176.315 75.192 174.979 75.192C174.312 75.192 173.935 74.732 174.633 73.557L181.105 62.399H183.572L184.444 60.966H181.948L184.793 56.091L181.774 56.09ZM149.465 60.969L152.31 56.094H155.329L152.483 60.967H154.982L154.11 62.403H151.645L145.169 73.561C144.472 74.736 144.85 75.196 145.517 75.196C146.852 75.196 148.974 73.217 151.15 70.721L151.306 70.545L152.543 68.455L154.023 65.902C155.765 62.918 157.563 62.002 159.885 62.002C162.731 62.002 164.414 64.955 162.586 68.082L159.741 72.928C161.252 72.899 162.935 72.184 164.299 70.721L164.504 70.493C164.91 70.665 165.432 71.122 165.632 71.526C164.092 73.332 161.248 74.422 159.448 74.422H158.782C155.513 78.506 150.166 77.763 150.172 73.961C148.306 75.73 146.369 77.034 144.615 77.034C142.177 77.034 141.276 74.996 142.554 72.787L148.622 62.404H145.865L146.735 60.969H149.465ZM160.263 66.967C161.291 65.225 160.825 64.02 159.841 63.93C159.076 63.86 157.998 64.466 157.071 66.022L155.62 68.459L153.326 72.387C151.526 75.484 154.983 75.943 156.405 73.533L156.435 73.477C156.26 73.189 156.144 72.844 156.144 72.473C156.144 71.498 156.927 70.694 157.914 70.694H158.059L160.263 66.967ZM203.575 66.936C204.587 65.192 204.055 64.275 203.086 64.332V64.333C202.334 64.377 201.317 65.011 200.554 66.303L198.608 69.66C199.741 70.062 201.688 70.12 203.138 67.682L203.575 66.936ZM247.404 58.869C245.69 60.389 245.546 62.083 246.621 63.459L246.883 63.803L246.821 63.8899C245.493 65.7458 243.718 68.2255 241.773 70.487L241.775 70.49L241.572 70.719C240.207 72.18 238.526 72.899 237.014 72.928L239.857 68.08C241.687 64.954 240.004 62 237.157 62C234.837 62 233.037 62.918 231.297 65.9L229.813 68.453L228.575 70.545L228.421 70.721C225.924 73.561 223.778 75.392 221.396 76.397L228.159 64.983H226.389C226.389 63.749 225.113 62.113 223.225 62.113C221.601 62.113 219.335 63.378 218.057 65.557L213.819 72.784C212.541 74.992 213.441 77.03 215.879 77.03C216.722 77.03 217.739 76.656 218.756 76.026L217.913 77.43C213.849 78.663 211.293 80.298 211.293 82.536C211.293 85.405 215.735 86.007 217.913 82.336L220.205 78.406C222.621 77.663 224.988 76.259 227.445 73.942C227.424 77.759 232.782 78.509 236.055 74.418H236.723C238.523 74.418 241.368 73.329 242.907 71.522C244.356 69.858 245.487 68.367 247.897 65.127L248.302 65.616C248.679 66.103 248.827 66.706 248.477 67.307L245.284 72.786C244.004 74.996 244.905 77.032 247.345 77.032C248.875 77.032 250.549 76.037 252.187 74.61C252.137 75.996 253.074 77.032 254.806 77.032C255.646 77.032 256.663 76.659 257.68 76.028L256.838 77.43C252.773 78.663 250.222 80.298 250.222 82.536C250.222 85.405 254.662 86.006 256.838 82.336L259.13 78.406C261.59 77.648 264 76.2 266.507 73.807C266.643 75.675 268.165 77.032 270.597 77.032C273.055 77.032 275.496 75.669 277.601 73.842C277.484 77.747 282.911 78.545 286.213 74.42H286.881C287.826 74.42 289.056 74.112 290.238 73.567C289.425 75.64 290.172 77.032 291.899 77.032C293.555 77.032 295.412 75.54 296.863 74.164C296.573 75.769 297.53 77.032 299.447 77.032C301.943 77.032 304.817 74.395 307.315 71.526L307.313 71.524C308.668 69.9796 309.897 68.3481 310.883 67.0383L310.883 67.0381C311.144 66.6925 311.387 66.3693 311.611 66.076C311.212 67.1162 311.018 68.435 310.828 69.7278C310.452 72.2827 310.092 74.736 308.185 74.736C307.169 74.736 306.765 73.646 306.765 73.646L304.875 74.621C304.875 74.621 305.426 77.033 308.185 77.033C308.453 77.033 308.697 77.0074 308.96 76.9799L309.025 76.973C309.04 76.973 309.056 76.9662 309.071 76.9595C309.086 76.9527 309.101 76.946 309.116 76.946C312.192 76.546 315.24 74.136 317.504 71.526C317.331 71.067 316.808 70.608 316.374 70.492L316.171 70.721C315.106 71.9533 313.886 73.0423 312.541 73.961C312.917 72.8472 313.114 71.4997 313.327 70.043C313.657 67.7852 314.025 65.2653 315.155 62.947L312.891 61.742C312.66 62.0549 312.379 62.4432 312.056 62.8882C310.633 64.8511 308.41 67.9181 306.185 70.49V70.492L305.982 70.721C303.806 73.217 301.687 75.193 300.351 75.193C299.684 75.193 299.306 74.734 300.004 73.559L306.448 62.401H303.428L298.058 71.666C295.765 73.73 293.996 74.878 293.414 74.619C292.715 74.3277 293.313 73.3433 293.705 72.6988C293.736 72.6486 293.765 72.6005 293.792 72.555L299.685 62.403H296.665L291.931 70.495L291.732 70.721C290.368 72.184 288.685 72.901 287.174 72.931L290.019 68.082C291.847 64.955 290.169 62.002 287.32 62.002C284.997 62.002 283.197 62.92 281.456 65.905L279.974 68.455L278.737 70.545L278.582 70.723C276.406 73.219 273.618 75.196 271.499 75.196C269.641 75.196 268.539 74.05 269.932 71.641L270.222 71.123C272.166 71.927 275.826 71.553 278.089 67.68L278.527 66.934C280.15 64.18 278.585 62.115 276.117 62.115C273.677 62.115 271.73 63.38 270.454 65.559L267.528 70.524L267.353 70.721C264.854 73.561 262.708 75.394 260.325 76.399L267.089 64.983H265.317C265.317 63.749 264.04 62.115 262.153 62.115C260.528 62.115 258.264 63.378 256.986 65.557L254.09 70.494L254.082 70.49L253.879 70.72C251.703 73.215 249.581 75.194 248.245 75.194C247.578 75.194 247.203 74.734 247.899 73.559L250.917 68.339C251.962 66.532 251.468 65.469 250.48 64.293L248.797 62.283C248.362 61.738 248.362 61.137 248.972 60.563L247.404 58.869ZM237.534 66.967C238.561 65.225 238.094 64.019 237.11 63.929V63.93C236.346 63.86 235.27 64.466 234.342 66.022L232.889 68.459L230.597 72.387C228.797 75.484 232.253 75.943 233.675 73.533L233.703 73.477C233.529 73.189 233.413 72.844 233.413 72.473C233.413 71.498 234.197 70.694 235.183 70.694H235.33L237.534 66.967ZM287.268 63.929C288.252 64.019 288.721 65.225 287.694 66.967L285.488 70.694H285.341C284.355 70.694 283.573 71.498 283.573 72.473C283.573 72.844 283.689 73.189 283.862 73.477L283.832 73.533C282.411 75.943 278.957 75.484 280.757 72.387L283.049 68.459L284.5 66.022C285.427 64.466 286.503 63.86 287.268 63.93V63.929ZM276.053 66.936C277.065 65.193 276.536 64.277 275.568 64.334V64.335C274.816 64.379 273.798 65.013 273.036 66.305L271.088 69.66C272.221 70.062 274.167 70.12 275.618 67.682L276.053 66.936ZM223.165 64.535C224.188 64.529 224.843 65.419 224.01 66.935L221.718 70.895C219.888 73.792 218.058 75.195 216.78 75.195C216.113 75.195 215.735 74.736 216.431 73.561L220.643 66.305C221.353 65.088 222.37 64.54 223.165 64.535ZM262.933 66.935C263.766 65.419 263.111 64.529 262.088 64.535C261.293 64.54 260.276 65.088 259.566 66.305L255.356 73.561C254.662 74.736 255.038 75.195 255.705 75.195C256.981 75.195 258.813 73.792 260.641 70.895L262.933 66.935ZM216.75 79.443L216.75 79.4443C214.459 80.3322 213.732 81.2201 213.732 81.994C213.732 82.797 214.748 82.968 215.386 81.85L216.75 79.4443L216.75 79.444V79.443ZM255.675 79.4443L255.675 79.443V79.444L255.675 79.4443ZM255.675 79.4443L254.313 81.85C253.673 82.968 252.657 82.797 252.657 81.994C252.657 81.2201 253.383 80.3322 255.675 79.4443ZM101.025 67.831H129.947V69.781H101.025V67.831ZM356.977 67.831H328.055V69.781H356.977V67.831Z" fill="#766458"/>
<path fill-rule="evenodd" clip-rule="evenodd" d="M194.824 37.364V45.1H174.008V0.352997H194.824V8.023H181.624V18.827H192.159V26.497H181.624V37.363L194.824 37.364ZM216.17 45.1V37.364L205.573 37.363V0.352997H197.957V45.1H216.17ZM322.7 45.1V37.364H309.499V26.497H320.034V18.827H309.499V8.024H322.7V0.352997H301.884V45.1H322.7ZM297.459 0.353997H289.908L283.115 21.959L276.324 0.353997H268.772V45.101H276.389V23.111L279.371 34.489H286.796L289.843 23.111V45.101H297.459V0.353997ZM257.999 8.024H252.476V37.364H258L257.999 8.024ZM265.679 5.085C265.679 2.463 263.521 0.353997 260.981 0.353997L249.557 0.354997C246.957 0.354997 244.861 2.464 244.861 5.085V40.37C244.861 42.927 246.957 45.1 249.557 45.1H260.981C263.521 45.1 265.679 42.927 265.679 40.37V5.085ZM232.971 28.606L240.649 26.816V40.368C240.649 42.925 238.492 45.098 235.953 45.098H224.528C221.928 45.098 219.833 42.925 219.833 40.368V5.084C219.833 2.462 221.928 0.353997 224.528 0.353997H235.951C238.491 0.353997 240.648 2.462 240.648 5.084V14.161L232.97 15.951V8.023H227.448V37.363H232.97L232.971 28.606ZM170.241 0.353997H162.564L161.994 37.364H161.232L156.344 0.353997H148.792L144.032 37.364H143.208L142.573 0.353997H134.957L136.099 45.1H150.632L152.599 26.626L154.567 45.1H169.037L170.241 0.353997Z" fill="#81B3D3"/>
<path fill-rule="evenodd" clip-rule="evenodd" d="M9.67377 190.115C9.75076 190.193 9.78977 190.27 9.78977 190.348C9.86777 190.348 9.94477 190.386 10.0218 190.464C12.1118 192.786 14.4738 194.954 17.1058 196.967C19.7378 198.902 22.7578 199.947 26.1638 200.102C26.2418 200.102 26.3188 200.142 26.3958 200.219H26.7448C26.8218 200.219 26.8998 200.257 26.9768 200.335H28.2538C28.6418 200.257 28.9898 200.18 29.2998 200.102C30.5408 199.869 31.7243 199.396 32.7838 198.709C33.9438 198.012 34.8348 197.16 35.4538 196.154L35.6868 195.689L35.9188 195.225C36.0738 194.683 36.1898 194.18 36.2678 193.715C36.3448 193.251 36.3838 192.825 36.3838 192.438C36.3838 190.348 35.4538 188.606 33.5968 187.212C31.8653 185.769 29.9018 184.631 27.7898 183.844C26.9955 183.551 26.1801 183.318 25.3508 183.148C24.6227 182.928 23.8869 182.734 23.1448 182.567H22.9128C22.8348 182.49 22.7578 182.451 22.6808 182.451C18.9152 181.533 15.3122 180.045 11.9968 178.038C8.66677 175.948 6.38377 172.967 5.14477 169.096C4.90213 168.286 4.66978 167.473 4.44777 166.657C4.28882 165.773 4.17268 164.882 4.09977 163.987C4.02843 163.721 3.98948 163.448 3.98377 163.173V160.386C4.06077 159.767 4.17677 159.148 4.33177 158.528C4.57217 156.947 4.96089 155.391 5.49277 153.883C6.03477 152.335 6.73177 150.941 7.58277 149.703C10.0608 145.599 13.2348 142.657 17.1058 140.877C21.0548 139.096 25.1578 138.206 29.4158 138.206C30.4228 138.206 31.4288 138.283 32.4358 138.438C33.5232 138.516 34.6075 138.632 35.6868 138.786C38.5108 139.261 41.2752 140.04 43.9318 141.109C46.7188 142.193 49.2738 143.47 51.5968 144.941L45.2098 159.225C43.1254 157.681 40.9103 156.321 38.5898 155.161C36.2678 153.999 33.7518 153.419 31.0418 153.419H30.1118C28.3318 153.651 26.6678 154.464 25.1188 155.857C23.5708 157.173 22.7968 158.606 22.7968 160.154V160.851C22.8738 161.083 22.9898 161.315 23.1448 161.548C23.2998 162.09 23.5708 162.593 23.9578 163.058C24.3448 163.522 24.7708 163.948 25.2348 164.335C26.0868 165.032 27.3248 165.69 28.9518 166.309C30.5768 166.851 32.2808 167.393 34.0618 167.935C35.5318 168.322 36.9638 168.709 38.3578 169.096C39.7518 169.406 40.9128 169.716 41.8418 170.026C46.1768 171.574 49.4288 174.167 51.5968 177.806C53.7638 181.367 54.8868 185.161 54.9638 189.186V189.767C54.9638 190.232 54.9258 190.697 54.8478 191.161V192.438C54.3838 196.464 53.0678 200.296 50.8998 203.935C48.8098 207.574 45.9838 210.361 42.4228 212.297C41.101 212.918 39.7436 213.461 38.3578 213.922C36.9738 214.307 35.58 214.656 34.1778 214.968C33.0278 215.199 31.864 215.354 30.6938 215.432C29.5775 215.584 28.4523 215.661 27.3258 215.664H26.0478C21.4028 215.51 16.8358 214.503 12.3448 212.644C7.85477 210.709 3.86777 208.154 0.384766 204.98L9.67377 190.115ZM225.568 143.869C219.22 147.353 214.265 152.386 210.704 158.966L210.703 158.965C209.68 160.861 208.825 162.842 208.148 164.887C207.462 166.859 206.919 168.877 206.523 170.926C206.29 172.011 206.135 173.055 206.058 174.061C205.981 175.068 205.942 176.075 205.942 177.081C205.942 183.894 207.8 190.475 211.516 196.823C215.232 203.094 220.342 207.933 226.845 211.339C229.213 212.565 231.704 213.538 234.277 214.242C236.865 214.931 239.507 215.397 242.174 215.636H243.684C244.222 215.713 244.766 215.752 245.31 215.752C252.896 215.752 260.136 213.7 267.026 209.597C273.916 205.417 278.987 199.572 282.238 192.062C282.846 190.55 283.35 188.998 283.748 187.417C284.206 185.823 284.517 184.191 284.677 182.54C284.832 181.765 284.91 180.991 284.91 180.217C284.987 179.365 285.026 178.552 285.026 177.778C285.026 171.354 283.516 165.198 280.497 159.314C277.478 153.353 273.22 148.592 267.723 145.03C265.173 143.407 262.446 142.082 259.594 141.082C256.85 140.086 254.008 139.386 251.116 138.992C250.187 138.914 249.22 138.837 248.213 138.759C247.284 138.682 246.355 138.643 245.426 138.643C238.536 138.643 231.916 140.385 225.568 143.869ZM298.713 213.95V139.976H318.223L346.094 177.95C346.814 179.075 347.473 180.238 348.068 181.434C348.772 182.608 349.43 183.809 350.042 185.034L351.436 188.054C351.9 189.06 352.365 190.027 352.829 190.956C352.756 190.138 352.64 189.324 352.481 188.518C352.404 187.744 352.326 186.931 352.249 186.079C352.091 184.495 351.975 182.908 351.9 181.318C351.819 179.655 351.781 177.989 351.784 176.324V139.976H371.177V213.95H351.784L323.681 175.744C322.907 174.815 322.171 173.731 321.475 172.493C320.77 171.161 320.112 169.805 319.501 168.428C319.051 167.453 318.586 166.485 318.107 165.525C317.747 164.585 317.36 163.655 316.946 162.738C317.333 165.138 317.643 167.577 317.875 170.054C318.107 172.531 318.217 175.009 318.223 177.486V213.95H298.713ZM406.173 139.976L380.741 213.95H400.715L404.547 200.595H433.115L436.831 213.95H457.037L431.373 139.976H406.173ZM408.845 186.311L416.393 161.808C416.7 160.733 416.971 159.649 417.206 158.556C417.522 157.445 417.793 156.322 418.018 155.189C418.095 155.034 418.135 154.918 418.135 154.84C418.135 154.686 418.173 154.531 418.251 154.376C418.328 153.911 418.406 153.485 418.483 153.098C418.638 152.634 418.754 152.208 418.831 151.821C418.909 152.208 418.986 152.634 419.064 153.098C419.141 153.486 419.257 153.911 419.412 154.376C419.654 155.659 419.925 156.937 420.225 158.208C420.6 159.412 420.987 160.612 421.386 161.808L428.935 186.311H408.845ZM263.543 185.559C263.775 184.785 263.969 183.972 264.123 183.12C264.356 182.269 264.511 181.417 264.588 180.565C264.666 180.024 264.704 179.482 264.704 178.94C264.782 178.398 264.82 177.894 264.82 177.43C264.82 176.963 264.781 176.497 264.704 176.036V174.643C264.317 171.313 263.311 168.101 261.684 165.004C260.059 161.907 257.814 159.507 254.949 157.804C254.175 157.417 253.401 157.069 252.627 156.759C251.853 156.449 251.078 156.179 250.304 155.946C249.536 155.792 248.761 155.676 247.982 155.598C247.217 155.444 246.439 155.366 245.659 155.365C241.711 155.365 238.072 156.605 234.743 159.082C231.414 161.559 229.091 164.849 227.775 168.952L227.543 169.417V169.881C227.304 170.604 227.11 171.341 226.963 172.088C226.808 172.785 226.653 173.52 226.498 174.294L226.266 175.92V178.359C226.266 178.591 226.304 178.862 226.382 179.172C226.614 183.275 227.852 187.185 230.098 190.901C232.42 194.539 235.595 196.939 239.62 198.101L241.014 198.565C241.478 198.643 241.982 198.72 242.524 198.797L243.917 199.03H245.311C249.414 199.03 253.091 197.83 256.343 195.43C259.672 192.952 262.072 189.662 263.543 185.559ZM169.542 212.092C173.8 211.162 177.748 209.459 181.387 206.982H181.388C185.878 203.73 189.323 199.55 191.723 194.44C194.123 189.33 195.439 184.027 195.672 178.53V175.627C195.672 175.162 195.633 174.698 195.555 174.234C195.246 168.968 193.891 163.859 191.491 158.904C189.091 153.95 185.723 149.963 181.388 146.944C178.024 144.485 174.189 142.746 170.124 141.834C166.098 140.905 161.994 140.324 157.814 140.092C156.653 140.014 155.453 139.976 154.214 139.976H129.13V213.95H152.936C154.175 213.95 155.415 213.911 156.652 213.834C160.987 213.602 165.284 213.022 169.542 212.092ZM148.987 197.343C149.219 197.343 149.452 197.382 149.684 197.459H150.497C150.807 197.459 151.077 197.499 151.31 197.576H154.445C155.297 197.498 156.11 197.421 156.884 197.343C158.887 197.19 160.871 196.84 162.806 196.298C164.742 195.756 166.484 194.943 168.032 193.859C170.51 192.079 172.329 189.679 173.49 186.659C174.722 183.595 175.353 180.323 175.348 177.021V176.091C175.348 175.782 175.31 175.472 175.232 175.163C175.079 172.23 174.37 169.353 173.142 166.685C171.903 163.898 170.2 161.692 168.032 160.065C166.442 158.767 164.574 157.853 162.574 157.395C160.593 156.924 158.57 156.652 156.535 156.582H148.987V197.343ZM69.0768 139.975V213.949H114.483V197.343H88.9348V184.801H112.974V169.007H88.9348V156.117H114.483V139.975H69.0768ZM351.424 336.358C351.311 336.649 351.254 336.941 351.254 337.235C351.254 337.953 351.501 338.504 351.994 338.884C352.489 339.268 353.064 339.458 353.714 339.458C353.69 339.839 353.59 340.176 353.41 340.468C353.23 340.759 353.002 341.016 352.734 341.228C352.467 341.441 352.18 341.621 351.877 341.767C351.573 341.912 351.299 342.029 351.049 342.119L352.399 344.109C352.431 344.093 352.464 344.077 352.497 344.062L352.526 344.048L352.583 344.022C352.644 343.993 352.706 343.966 352.769 343.939C352.975 343.851 353.215 343.731 353.495 343.587C353.802 343.424 354.1 343.244 354.388 343.047C354.69 342.844 354.972 342.613 355.231 342.356C355.784 341.807 356.224 341.154 356.527 340.436C356.831 339.717 356.982 338.928 356.982 338.078C356.982 337.627 356.916 337.201 356.78 336.797C356.645 336.393 356.455 336.045 356.208 335.753C355.917 335.436 355.561 335.196 355.147 335.026C354.731 334.858 354.299 334.774 353.849 334.774C353.444 334.774 353.079 334.848 352.754 334.994C352.443 335.129 352.162 335.323 351.927 335.566C351.704 335.802 351.536 336.065 351.424 336.358ZM359.091 337.235C359.091 336.942 359.148 336.649 359.258 336.358C359.371 336.065 359.54 335.802 359.764 335.566C359.991 335.331 360.264 335.138 360.589 334.994C360.916 334.849 361.279 334.774 361.685 334.774C362.135 334.774 362.568 334.858 362.982 335.026C363.399 335.196 363.752 335.436 364.043 335.753C364.293 336.045 364.483 336.393 364.617 336.797C364.751 337.202 364.819 337.628 364.819 338.078C364.828 338.887 364.673 339.689 364.364 340.436C364.06 341.154 363.619 341.806 363.066 342.356C362.807 342.613 362.524 342.844 362.221 343.047C361.935 343.246 361.637 343.426 361.328 343.587C361.048 343.732 360.808 343.851 360.603 343.939C360.478 343.993 360.355 344.05 360.233 344.109L358.885 342.119C359.132 342.03 359.405 341.912 359.71 341.767C360.014 341.621 360.3 341.441 360.57 341.228C360.838 341.014 361.064 340.761 361.243 340.468C361.424 340.176 361.525 339.84 361.547 339.458C360.925 339.469 360.318 339.266 359.828 338.884C359.338 338.504 359.091 337.953 359.091 337.236V337.235ZM94.3608 279.394C94.4738 279.103 94.5308 278.81 94.5308 278.519H94.5318C94.5318 277.8 94.2838 277.251 93.7918 276.87C93.2978 276.488 92.7238 276.298 92.0738 276.298C92.0968 275.915 92.1968 275.577 92.3768 275.285C92.5568 274.993 92.7798 274.74 93.0498 274.527C93.3198 274.313 93.6068 274.134 93.9098 273.988C94.1791 273.858 94.4544 273.74 94.7348 273.636L93.3868 271.648C93.3428 271.67 93.2198 271.728 93.0168 271.815C92.8138 271.904 92.5718 272.023 92.2918 272.167C91.9837 272.329 91.6855 272.509 91.3988 272.707C91.0953 272.909 90.8126 273.14 90.5548 273.397C90.0017 273.947 89.5612 274.599 89.2578 275.317C88.9548 276.037 88.8028 276.825 88.8028 277.677C88.8006 278.112 88.8688 278.544 89.0048 278.957C89.1269 279.339 89.3214 279.694 89.5778 280.002C89.873 280.319 90.2351 280.567 90.6378 280.727C91.0496 280.895 91.4902 280.98 91.9348 280.979C92.6571 280.989 93.352 280.703 93.8578 280.187C94.0764 279.959 94.2474 279.689 94.3608 279.394ZM86.6948 278.519C86.6899 279.141 86.4494 279.738 86.0218 280.189C85.7861 280.431 85.5056 280.625 85.1958 280.76C84.8698 280.906 84.5038 280.98 84.0998 280.98C83.6548 280.981 83.2138 280.896 82.8018 280.728C82.3991 280.567 82.0371 280.319 81.7418 280.002C81.4848 279.694 81.2901 279.339 81.1688 278.957C81.0323 278.544 80.9641 278.112 80.9668 277.677C80.9668 276.825 81.1168 276.037 81.4218 275.317C81.7248 274.599 82.1654 273.946 82.7188 273.397C82.9658 273.149 83.2458 272.92 83.5618 272.706C83.8758 272.494 84.1738 272.313 84.4548 272.166C84.7348 272.022 84.9748 271.904 85.1788 271.816L85.2354 271.79C85.4043 271.714 85.5101 271.667 85.5508 271.646L86.8978 273.634C86.6498 273.724 86.3758 273.842 86.0718 273.987C85.7688 274.134 85.4818 274.313 85.2148 274.525C84.9472 274.737 84.7185 274.994 84.5388 275.284C84.3598 275.576 84.2588 275.914 84.2368 276.296C84.8868 276.296 85.4608 276.486 85.9548 276.869C86.4478 277.251 86.6948 277.799 86.6948 278.519ZM335.86 335.393H332.045L343.926 314.757H347.702L335.86 335.393ZM331.864 336.881C330.628 336.881 329.683 337.861 329.683 339.099C329.683 340.337 330.629 341.279 331.864 341.279C333.096 341.279 334.081 340.335 334.081 339.099C334.081 337.863 333.096 336.881 331.864 336.881ZM306.602 329.466L305.512 331.354C306.347 333.825 309.651 332.445 310.781 330.483L312.596 327.359C313.941 325.069 310.962 323.398 306.602 329.466ZM330.604 334.334C330.386 333.754 329.732 333.171 329.187 333.027L328.932 333.319C327.603 334.879 326.076 336.258 324.39 337.423C324.86 336.012 325.106 334.304 325.373 332.458C325.785 329.599 326.245 326.409 327.658 323.473L324.823 321.946C324.545 322.328 324.207 322.799 323.821 323.338L323.821 323.339L323.821 323.339C322.044 325.822 319.237 329.743 316.431 333.027C316.437 333.037 316.447 333.045 316.452 333.052C316.445 333.049 316.439 333.045 316.432 333.041C316.424 333.035 316.415 333.03 316.407 333.027L316.154 333.319C313.427 336.479 310.777 338.985 309.104 338.985C308.27 338.985 307.47 338.149 307.47 336.442V334.88C310.122 335.207 312.92 333.462 314.7 330.376L315.716 328.633C319.238 322.603 313.499 320.603 309.648 324.129L315.023 314.792H311.244L300.469 333.487C300.261 333.303 300.029 333.15 299.78 333.03L299.524 333.322C296.801 336.482 293.313 338.988 290.661 338.988C288.336 338.988 286.956 337.535 288.7 334.484L292.584 327.727C294.764 323.985 298.616 324.603 296.362 328.527L295.818 329.471H298.908L299.453 328.527C301.487 325.039 299.524 322.423 296.438 322.423C293.387 322.423 290.951 324.023 289.353 326.783L285.635 333.163C285.615 333.151 285.595 333.139 285.575 333.127C285.516 333.091 285.456 333.055 285.402 333.031L285.147 333.323C282.423 336.483 279.772 338.989 278.1 338.989C277.264 338.989 276.794 338.409 277.664 336.919L285.73 322.786H281.95L275.231 334.52C272.358 337.135 270.146 338.588 269.417 338.262C268.541 337.892 269.29 336.646 269.781 335.83C269.819 335.766 269.856 335.705 269.89 335.647L277.264 322.786H273.486L266.148 335.481C265.642 335.942 264.839 336.372 264.114 336.761C263.671 336.999 263.257 337.221 262.958 337.425C263.428 336.013 263.675 334.305 263.942 332.458V332.458L263.942 332.457C264.354 329.599 264.815 326.41 266.227 323.475L263.395 321.948C261.832 324.091 253.112 335.646 249.697 339.641C250.022 340.113 250.569 340.586 251.113 340.949C253.256 338.479 260.451 329.215 261.795 327.435C261.294 328.753 261.052 330.425 260.815 332.063C260.346 335.3 259.896 338.407 257.507 338.407C256.237 338.407 255.727 337.025 255.727 337.025L253.366 338.261C253.366 338.261 254.056 341.311 257.506 341.311C257.84 341.311 258.142 341.281 258.469 341.248L258.47 341.248L258.562 341.239C258.568 341.239 258.575 341.238 258.582 341.236C258.588 341.234 258.594 341.231 258.6 341.228C258.605 341.226 258.61 341.224 258.615 341.221L258.615 341.221C258.626 341.215 258.636 341.21 258.647 341.207L258.651 341.205L258.655 341.204C258.659 341.204 258.664 341.203 258.668 341.203C260.588 340.949 263.246 340.065 265.028 338.833C265.016 340.37 265.944 341.311 267.528 341.311C269.596 341.311 271.923 339.422 273.738 337.679C273.377 339.714 274.573 341.311 276.973 341.311C279.319 341.311 281.932 339.425 284.41 336.948C284.444 339.458 286.378 341.311 289.536 341.311C292.602 341.311 295.65 339.598 298.277 337.295L296.172 340.949H299.988L304.311 333.429V336.443C304.311 339.675 304.928 341.311 307.981 341.311C311.104 341.311 314.702 337.97 317.826 334.336C317.824 334.333 317.821 334.33 317.819 334.326C317.813 334.319 317.807 334.311 317.806 334.302C317.82 334.314 317.837 334.325 317.853 334.336C319.566 332.362 321.117 330.271 322.356 328.602C322.667 328.183 322.958 327.79 323.228 327.432C322.728 328.75 322.486 330.42 322.249 332.058C321.781 335.296 321.331 338.405 318.941 338.405C317.671 338.405 317.161 337.023 317.161 337.023L314.799 338.259C314.799 338.259 315.49 341.309 318.941 341.309C319.268 341.309 319.566 341.28 319.893 341.247L319.997 341.237C320.012 341.237 320.028 341.23 320.044 341.222C320.063 341.212 320.082 341.202 320.102 341.202C323.955 340.69 327.77 337.64 330.603 334.332L330.604 334.334ZM215.83 333.248H216.013L218.773 328.526C221.061 324.601 217.429 322.821 214.776 327.326L212.96 330.414L210.09 335.391C207.837 339.315 212.161 339.895 213.94 336.845L213.977 336.772C213.759 336.41 213.614 335.975 213.614 335.503C213.614 334.265 214.595 333.248 215.83 333.248ZM190.583 347.379C189.783 348.796 188.511 348.579 188.511 347.563C188.511 346.583 189.42 345.457 192.326 344.329L190.583 347.379ZM155.738 338.952C157.3 338.952 159.553 337.244 161.841 333.649L164.782 328.489C166.636 325.073 162.604 324.166 160.569 327.688L155.302 336.881C154.431 338.372 154.903 338.952 155.738 338.952ZM149.787 318.899C150.913 316.972 152.149 316.137 153.202 316.137C154.62 316.137 155.273 317.081 155.273 318.462C155.273 321.986 150.909 329.295 145.101 328.343H144.338L149.787 318.899ZM242.31 333.285L242.564 332.993L242.565 332.994C243.075 333.212 243.728 333.794 243.983 334.305C240.857 337.938 237.263 341.28 234.137 341.28C231.084 341.28 229.959 338.703 231.557 335.904L236.461 327.366C238.097 324.568 235.517 323.625 229.74 330.855L223.964 340.918H220.149L222.689 336.524C221.003 337.454 219.135 337.974 217.755 337.974H216.92C212.682 343.332 205.654 342.129 206.174 336.852C202.922 340.071 199.808 342.03 196.649 343.024L193.743 348.002C191.021 352.652 185.461 351.888 185.461 348.255C185.461 345.423 188.658 343.314 193.781 341.79L195.852 338.23C194.143 339.754 192.074 341.28 190.257 341.28C188.375 341.28 187.416 339.948 187.869 337.87C185.695 339.86 183.462 341.28 181.429 341.28C178.378 341.28 177.252 338.704 178.85 335.904L183.754 327.37C185.389 324.571 182.809 323.628 177.032 330.858L171.256 340.921H167.442L168.834 338.51C166.892 340.159 164.924 341.283 163.114 341.283C161.19 341.283 160.026 340.268 159.846 338.814C158.029 340.303 156.14 341.283 154.614 341.283C151.939 341.283 150.743 339.302 151.566 336.928L151.341 337.141L151.341 337.141C148.852 339.51 146.988 341.283 142.885 341.283C137.545 341.283 135.984 336.199 138.635 331.621L139.76 329.657C136.71 328.059 135.002 325.152 135.002 322.139C135.002 319.593 136.199 317.017 138.889 315.089L140.124 317.307C138.49 318.577 137.69 320.321 137.69 322.064C137.69 324.172 138.854 326.279 141.07 327.442L146.956 317.305C148.662 314.327 151.133 312.873 153.204 312.873C156 312.873 158.217 315.088 158.217 318.503C158.217 319.993 157.744 321.736 156.691 323.589C153.712 328.784 149.134 330.856 145.101 330.856C144.34 330.856 143.649 330.779 142.959 330.672L141.904 332.524C139.654 336.376 141.215 338.955 143.794 338.955C147.469 338.955 149.553 336.538 152.207 333.459L152.354 333.288L152.608 332.996C152.879 333.069 153.176 333.251 153.436 333.484L157.339 326.748C158.935 323.985 161.771 322.388 163.804 322.388C166.275 322.388 167.91 324.604 167.765 326.202H169.908L163.804 336.882C162.933 338.374 163.405 338.954 164.24 338.954C165.913 338.954 168.565 336.447 171.288 333.287L171.542 332.995C171.667 333.053 171.787 333.12 171.901 333.197L177.939 322.752H181.719L180.302 325.221C182.19 323.259 183.898 322.387 185.533 322.387C187.64 322.387 189.202 324.459 187.567 327.329L182.118 336.882C181.247 338.374 181.719 338.954 182.554 338.954C184.226 338.954 186.877 336.447 189.602 333.287L189.856 332.995C189.971 333.049 190.081 333.111 190.187 333.182L196.215 322.752H199.993L192.618 335.612L192.57 335.692L192.507 335.798C192.017 336.616 191.271 337.859 192.146 338.228C192.872 338.554 195.125 337.065 198.032 334.378L204.715 322.752H208.494L198.139 340.482C201.117 339.207 203.769 336.882 206.894 333.287L207.148 332.996C207.267 333.05 207.381 333.114 207.49 333.186L209.11 330.416L210.962 327.183C213.143 323.405 215.394 322.243 218.301 322.243C221.863 322.243 223.969 325.982 221.681 329.944L218.121 336.084C220.01 336.047 222.118 335.137 223.824 333.285L224.079 332.993C224.249 333.073 224.41 333.17 224.561 333.283L230.649 322.75H234.428L233.011 325.219C234.901 323.257 236.606 322.386 238.242 322.386C240.347 322.386 241.913 324.457 240.277 327.327L234.827 336.88C233.956 338.372 234.427 338.952 235.263 338.952C236.935 338.952 239.588 336.445 242.31 333.285ZM361.195 297.421C358.905 301.162 356.58 302.942 354.983 302.942C354.148 302.942 353.676 302.362 354.546 300.872L359.813 291.679C361.848 288.155 365.88 289.064 364.027 292.479H364.062L361.195 297.421ZM318.904 302.942C320.465 302.942 322.718 301.234 325.008 297.64L327.949 292.479C329.801 289.064 325.769 288.155 323.735 291.679L318.467 300.872C317.597 302.362 318.068 302.942 318.904 302.942ZM285.091 311.37C284.294 312.787 283.021 312.57 283.021 311.554C283.021 310.573 283.893 309.447 286.8 308.32L285.091 311.37ZM296.536 280.129C295.481 280.129 294.246 280.963 293.119 282.889L287.671 292.334H288.434C298.061 294.564 302.53 280.129 296.536 280.129ZM370.783 296.986L370.528 297.276C367.808 300.436 365.154 302.943 363.481 302.943C362.646 302.943 362.174 302.363 363.044 300.872L375.833 278.748H372.054L366.497 288.339C365.843 287.285 364.607 286.377 363.044 286.377C361.009 286.377 358.177 287.976 356.578 290.736L352.88 297.116C352.867 297.109 352.854 297.101 352.841 297.093L352.816 297.078C352.758 297.043 352.7 297.008 352.646 296.984L352.391 297.276C349.668 300.436 347.391 302.942 345.719 302.942C344.882 302.942 344.412 302.362 345.281 300.872L350.731 291.317C352.368 288.447 350.803 286.375 348.697 286.375C347.061 286.375 345.357 287.246 343.465 289.21L344.882 286.74H341.103L335.066 297.187C334.951 297.11 334.831 297.042 334.706 296.984L334.45 297.276C331.727 300.436 329.076 302.942 327.404 302.942C326.569 302.942 326.098 302.362 326.968 300.872L333.071 290.19H330.927C331.073 288.592 329.439 286.375 326.967 286.375C324.932 286.375 322.097 287.974 320.499 290.733L316.847 297.039L316.641 297.273C313.919 300.432 310.891 302.938 309.221 302.938C308.384 302.938 307.914 302.358 308.784 300.868L312.562 294.257C313.869 291.967 313.251 290.624 312.017 289.134L309.911 286.59C309.366 285.9 309.366 285.137 310.129 284.41L308.167 282.267C306.023 284.194 305.842 286.336 307.185 288.08L307.514 288.516L307.38 288.705L307.379 288.706C305.722 291.048 303.524 294.153 301.117 296.981C301.158 297.04 301.203 297.098 301.251 297.156C301.291 297.204 301.332 297.253 301.375 297.301C298.262 300.881 295.616 303.196 292.645 304.463L297.44 296.253H293.662L293.263 296.908C291.265 300.432 288.975 302.939 286.033 302.939C283.453 302.939 282.983 300.36 285.233 296.509L286.288 294.657C286.996 294.774 287.712 294.834 288.43 294.838C301.873 294.838 308.376 276.856 296.534 276.856C294.462 276.856 291.99 278.31 290.284 281.288L284.399 291.423C282.183 290.262 281.021 288.155 281.021 286.048C281.021 284.305 281.821 282.56 283.453 281.29L282.22 279.073C279.53 280.999 278.332 283.577 278.332 286.12C278.332 289.136 280.041 292.042 283.092 293.64L281.965 295.603C279.313 300.181 279.785 305.266 285.127 305.266C286.725 305.266 288.068 304.794 289.232 304.066L288.249 305.776C283.129 307.336 279.967 309.407 279.967 312.241C279.967 315.873 285.527 316.637 288.249 311.987L291.156 307.01C295.081 305.775 298.932 303.087 303.074 298.291C303.007 298.165 302.928 298.046 302.838 297.936C304.516 295.965 305.94 294.062 308.788 290.19L309.295 290.809C309.768 291.425 309.949 292.189 309.513 292.953L305.516 299.89C303.917 302.685 305.044 305.264 308.096 305.264C309.995 305.264 312.444 304.025 314.481 302.24C314.437 303.978 315.625 305.264 317.78 305.264C319.305 305.264 321.195 304.284 323.01 302.794C323.193 304.248 324.357 305.264 326.28 305.264C328.09 305.264 330.057 304.139 332 302.49L330.608 304.902H334.421L340.198 294.837C345.975 287.608 348.555 288.553 346.918 291.35L342.015 299.888C340.418 302.686 341.542 305.264 344.593 305.264C346.603 305.264 348.429 303.88 350.575 301.931C350.375 303.824 351.579 305.264 353.857 305.264C355.382 305.264 357.271 304.284 359.089 302.794C359.271 304.249 360.434 305.264 362.358 305.264C365.483 305.264 369.078 301.923 372.203 298.288C371.947 297.784 371.294 297.203 370.783 296.986ZM262.282 292.48C264.536 288.556 260.683 287.939 258.503 291.681L256.069 295.931C257.485 296.439 259.92 296.513 261.737 293.424L262.282 292.48ZM255.452 305.268C259.739 305.268 263.992 301.927 267.114 298.293C266.861 297.783 266.206 297.203 265.697 296.985L265.444 297.277C262.718 300.437 259.231 302.943 256.577 302.943C254.252 302.943 252.872 301.49 254.615 298.438L254.978 297.785C257.413 298.801 261.99 298.33 264.824 293.425L265.369 292.481C267.404 288.992 265.442 286.377 262.353 286.377C259.303 286.377 256.869 287.975 255.27 290.736L251.591 297.049C251.553 297.029 251.515 297.001 251.479 296.985L251.224 297.277C248.5 300.437 245.849 302.943 244.177 302.943C243.341 302.943 242.871 302.363 243.74 300.872L249.19 291.317C250.825 288.447 249.262 286.375 247.154 286.375C245.519 286.375 243.775 287.284 241.888 289.246L247.918 278.746H244.14L233.484 297.236C233.349 297.138 233.204 297.053 233.052 296.984L232.797 297.275C230.072 300.436 227.421 302.942 225.749 302.942C224.914 302.942 224.442 302.362 225.312 300.872L233.414 286.738H236.504L237.594 284.921H234.469L238.029 278.746H234.251L230.691 284.921H227.276L226.186 286.738H229.636L222.043 299.891C220.445 302.69 221.571 305.268 224.622 305.268C226.5 305.268 228.548 304.055 230.562 302.304L229.063 304.904H232.878L238.618 294.912C244.431 287.61 247.011 288.555 245.376 291.352L240.471 299.89C238.873 302.688 239.999 305.266 243.051 305.266C245.347 305.266 247.897 303.461 250.327 301.061C250.437 303.492 252.36 305.268 255.452 305.268ZM131.757 292.479C134.011 288.555 130.161 287.938 127.981 291.68L125.546 295.929C126.962 296.438 129.398 296.511 131.213 293.423L131.757 292.479ZM151.1 300.871L156.368 291.68C158.402 288.154 162.435 289.063 160.581 292.479L157.639 297.638C155.351 301.233 153.096 302.942 151.535 302.942C150.701 302.942 150.228 302.361 151.1 300.872V300.871ZM208.86 292.479C211.114 288.555 207.264 287.938 205.084 291.68L202.649 295.929C204.065 296.437 206.5 296.511 208.315 293.423L208.86 292.479ZM147.276 301.206C146.649 303.446 147.846 305.266 150.41 305.266C151.935 305.266 153.825 304.286 155.64 302.797C155.823 304.25 156.986 305.267 158.91 305.267C160.923 305.267 163.128 303.877 165.279 301.921C164.861 303.963 165.818 305.267 167.679 305.267C169.752 305.267 172.077 303.377 173.892 301.633C173.528 303.669 174.729 305.267 177.126 305.267C180.251 305.267 183.846 301.925 186.971 298.291C186.956 298.262 186.936 298.232 186.915 298.203C186.899 298.182 186.884 298.161 186.871 298.14C188.511 296.232 189.999 294.233 191.201 292.618L191.201 292.618L191.201 292.617L191.201 292.617L191.202 292.616C191.53 292.175 191.836 291.764 192.119 291.39C191.618 292.708 191.376 294.379 191.139 296.018V296.018C190.67 299.254 190.22 302.362 187.831 302.362C186.561 302.362 186.051 300.98 186.051 300.98L183.688 302.215C183.688 302.215 184.378 305.267 187.83 305.267C188.154 305.267 188.448 305.238 188.767 305.206L188.884 305.194C188.902 305.194 188.921 305.185 188.939 305.176C188.956 305.168 188.974 305.159 188.992 305.159C191.768 304.792 194.521 303.103 196.905 300.95C196.963 303.436 198.891 305.267 202.03 305.267C206.317 305.267 210.568 301.926 213.692 298.291C213.438 297.781 212.784 297.201 212.276 296.983L212.022 297.275C209.297 300.435 205.809 302.942 203.159 302.942C200.833 302.942 199.452 301.488 201.196 298.437L201.56 297.783C203.992 298.799 208.57 298.328 211.405 293.423L211.95 292.48C213.984 288.991 212.022 286.376 208.935 286.376C205.885 286.376 203.448 287.974 201.852 290.734L198.182 297.028C198.166 297.023 198.15 297.014 198.134 297.006C198.115 296.997 198.096 296.987 198.078 296.982L197.824 297.273C196.495 298.833 194.968 300.213 193.282 301.379C193.752 299.967 193.999 298.259 194.266 296.412V296.412L194.266 296.412C194.679 293.554 195.14 290.364 196.552 287.428L193.719 285.902C193.435 286.292 193.089 286.774 192.694 287.326L192.694 287.326C190.915 289.811 188.12 293.713 185.326 296.982C185.337 296.997 185.349 297.012 185.361 297.028C185.369 297.037 185.376 297.047 185.384 297.056L185.387 297.059L185.388 297.06C185.404 297.08 185.42 297.1 185.436 297.12L185.301 297.273C182.577 300.433 179.925 302.94 178.253 302.94C177.418 302.94 176.946 302.36 177.817 300.87L185.882 286.735H182.103L175.383 298.469C172.513 301.085 170.298 302.538 169.569 302.211C168.693 301.841 169.444 300.593 169.935 299.776L169.936 299.774L169.945 299.759C169.965 299.726 169.985 299.693 170.004 299.661C170.017 299.639 170.03 299.617 170.043 299.596L177.416 286.736H173.638L167.625 297.141L167.591 297.12C167.504 297.067 167.419 297.014 167.338 296.98L167.084 297.27C164.359 300.43 161.708 302.937 160.036 302.937C159.201 302.937 158.729 302.357 159.6 300.867L165.703 290.185H163.559C163.705 288.587 162.071 286.369 159.599 286.369C157.565 286.369 154.731 287.969 153.133 290.729L149.303 297.341C149.126 297.197 148.933 297.075 148.727 296.978L148.473 297.268C145.749 300.428 142.615 302.935 139.963 302.935C137.639 302.935 136.257 301.482 138 298.431L141.887 291.675C144.067 287.933 147.918 288.55 145.664 292.473L145.119 293.418H148.209L148.753 292.473C150.787 288.986 148.826 286.369 145.739 286.369C142.687 286.369 140.605 287.969 139.009 290.729L135.253 297.172C135.143 297.098 135.027 297.033 134.906 296.978L134.652 297.268C131.928 300.428 128.705 302.935 126.054 302.935C123.728 302.935 122.347 301.482 124.091 298.431L124.454 297.777C126.888 298.795 131.466 298.322 134.3 293.419L134.845 292.473C136.879 288.987 134.917 286.37 131.829 286.37C128.779 286.37 126.343 287.968 124.746 290.73L120.786 297.522C118.423 301.555 120.459 305.26 124.926 305.26C128.255 305.26 130.939 303.245 133.714 300.643C133.616 303.28 135.572 305.26 138.835 305.26C141.923 305.266 144.635 303.532 147.276 301.206ZM113.455 282.015L110.404 287.246V287.247C114.255 287.174 116.4 286.338 117.85 283.614C119.74 280.053 116.215 277.258 113.455 282.015ZM106.336 304.466C104.083 304.466 102.303 303.958 100.886 303.16C101.54 302.396 102.193 301.451 102.776 300.471L109.132 289.463L110.149 289.571C119.015 291.426 115.49 304.466 106.336 304.466ZM115.673 288.991C123.301 286.41 123.881 276.856 116.362 276.856C114.291 276.856 111.821 278.309 110.114 281.288L99.9408 298.872C99.521 299.627 99.0351 300.344 98.4888 301.013C95.8728 297.418 96.6358 292.042 100.305 289.679L98.7778 287.753C90.8578 292.803 93.1838 307.37 106.408 307.37C117.707 307.372 122.937 293.824 115.673 288.991Z" fill="white"/>
</svg>
