<svg width="46" height="48" viewBox="0 0 46 48" fill="none" xmlns="http://www.w3.org/2000/svg">
<rect width="46" height="48" fill="#5496BD"/>
<g opacity="0.3">
<path d="M25.951 17.1441C27.636 16.6481 28.935 17.4141 29.528 18.3231C30.201 18.0921 30.859 17.8421 31.539 17.6151C31.5258 18.3015 31.2126 18.9476 30.682 19.3831C31.367 19.5531 31.986 18.8921 31.986 18.8921C31.817 19.8921 30.98 20.6801 30.423 20.9161C30.192 27.6661 27.248 32.1331 20.346 31.9981H19.9C19.49 31.9981 15.736 31.5381 15.002 30.1111C17.273 30.3071 18.895 29.6891 19.695 28.9341C18.735 28.6341 17.016 28.4571 16.716 25.9841C17.065 26.0901 17.28 26.2121 17.906 26.1031C16.706 25.2471 15.375 24.5301 15.449 22.3301C15.734 22.6581 16.516 22.8661 16.789 22.8021C16.086 22.5611 14.819 19.4421 15.895 17.8501C17.713 19.7041 19.63 21.4561 23.047 21.6231C23.255 19.3301 24.184 17.7931 25.951 17.1441Z" fill="white"/>
</g>
</svg>
